<svg id="visual" viewBox="0 0 900 600" width="900" height="600" xmlns="http://www.w3.org/2000/svg" xmlns:xlink="http://www.w3.org/1999/xlink" version="1.1"><path d="M854 600L840.5 580C827 560 800 520 795.5 480C791 440 809 400 809 360C809 320 791 280 780.5 240C770 200 767 160 759.5 120C752 80 740 40 734 20L728 0L900 0L900 20C900 40 900 80 900 120C900 160 900 200 900 240C900 280 900 320 900 360C900 400 900 440 900 480C900 520 900 560 900 580L900 600Z" fill="#aeaeb0"></path><path d="M647 600L659 580C671 560 695 520 716 480C737 440 755 400 753.5 360C752 320 731 280 704 240C677 200 644 160 624.5 120C605 80 599 40 596 20L593 0L729 0L735 20C741 40 753 80 760.5 120C768 160 771 200 781.5 240C792 280 810 320 810 360C810 400 792 440 796.5 480C801 520 828 560 841.5 580L855 600Z" fill="#b6b6b8"></path><path d="M377 600L378.5 580C380 560 383 520 392 480C401 440 416 400 431 360C446 320 461 280 459.5 240C458 200 440 160 431 120C422 80 422 40 422 20L422 0L594 0L597 20C600 40 606 80 625.5 120C645 160 678 200 705 240C732 280 753 320 754.5 360C756 400 738 440 717 480C696 520 672 560 660 580L648 600Z" fill="#bebebf"></path><path d="M332 600L333.5 580C335 560 338 520 332 480C326 440 311 400 308 360C305 320 314 280 324.5 240C335 200 347 160 350 120C353 80 347 40 344 20L341 0L423 0L423 20C423 40 423 80 432 120C441 160 459 200 460.5 240C462 280 447 320 432 360C417 400 402 440 393 480C384 520 381 560 379.5 580L378 600Z" fill="#c6c6c7"></path><path d="M305 600L309.5 580C314 560 323 520 317 480C311 440 290 400 287 360C284 320 299 280 305 240C311 200 308 160 306.5 120C305 80 305 40 305 20L305 0L342 0L345 20C348 40 354 80 351 120C348 160 336 200 325.5 240C315 280 306 320 309 360C312 400 327 440 333 480C339 520 336 560 334.5 580L333 600Z" fill="#cececf"></path><path d="M260 600L261.5 580C263 560 266 520 260 480C254 440 239 400 231.5 360C224 320 224 280 224 240C224 200 224 160 228.5 120C233 80 242 40 246.5 20L251 0L306 0L306 20C306 40 306 80 307.5 120C309 160 312 200 306 240C300 280 285 320 288 360C291 400 312 440 318 480C324 520 315 560 310.5 580L306 600Z" fill="#d6d6d7"></path><path d="M224 600L225.5 580C227 560 230 520 225.5 480C221 440 209 400 197 360C185 320 173 280 171.5 240C170 200 179 160 188 120C197 80 206 40 210.5 20L215 0L252 0L247.5 20C243 40 234 80 229.5 120C225 160 225 200 225 240C225 280 225 320 232.5 360C240 400 255 440 261 480C267 520 264 560 262.5 580L261 600Z" fill="#dededf"></path><path d="M179 600L170 580C161 560 143 520 132.5 480C122 440 119 400 108.5 360C98 320 80 280 84.5 240C89 200 116 160 119 120C122 80 101 40 90.5 20L80 0L216 0L211.5 20C207 40 198 80 189 120C180 160 171 200 172.5 240C174 280 186 320 198 360C210 400 222 440 226.5 480C231 520 228 560 226.5 580L225 600Z" fill="#e6e6e7"></path><path d="M125 600L117.5 580C110 560 95 520 81.5 480C68 440 56 400 50 360C44 320 44 280 50 240C56 200 68 160 69.5 120C71 80 62 40 57.5 20L53 0L81 0L91.5 20C102 40 123 80 120 120C117 160 90 200 85.5 240C81 280 99 320 109.5 360C120 400 123 440 133.5 480C144 520 162 560 171 580L180 600Z" fill="#eeeeef"></path><path d="M26 600L23 580C20 560 14 520 12.5 480C11 440 14 400 14 360C14 320 11 280 20 240C29 200 50 160 50 120C50 80 29 40 18.5 20L8 0L54 0L58.5 20C63 40 72 80 70.5 120C69 160 57 200 51 240C45 280 45 320 51 360C57 400 69 440 82.5 480C96 520 111 560 118.5 580L126 600Z" fill="#f7f7f7"></path><path d="M0 600L0 580C0 560 0 520 0 480C0 440 0 400 0 360C0 320 0 280 0 240C0 200 0 160 0 120C0 80 0 40 0 20L0 0L9 0L19.5 20C30 40 51 80 51 120C51 160 30 200 21 240C12 280 15 320 15 360C15 400 12 440 13.5 480C15 520 21 560 24 580L27 600Z" fill="#ffffff"></path></svg>