<svg id="visual" viewBox="0 0 900 600" width="900" height="600" xmlns="http://www.w3.org/2000/svg" xmlns:xlink="http://www.w3.org/1999/xlink" version="1.1"><rect x="0" y="0" width="900" height="600" fill="#EFFCF8"></rect><path d="M0 438L21.5 428.7C43 419.3 86 400.7 128.8 387C171.7 373.3 214.3 364.7 257.2 363.2C300 361.7 343 367.3 385.8 380.8C428.7 394.3 471.3 415.7 514.2 424C557 432.3 600 427.7 642.8 420.2C685.7 412.7 728.3 402.3 771.2 403.7C814 405 857 418 878.5 424.5L900 431L900 601L878.5 601C857 601 814 601 771.2 601C728.3 601 685.7 601 642.8 601C600 601 557 601 514.2 601C471.3 601 428.7 601 385.8 601C343 601 300 601 257.2 601C214.3 601 171.7 601 128.8 601C86 601 43 601 21.5 601L0 601Z" fill="#5a9d8d"></path><path d="M0 393L21.5 402.8C43 412.7 86 432.3 128.8 434.8C171.7 437.3 214.3 422.7 257.2 413.7C300 404.7 343 401.3 385.8 402C428.7 402.7 471.3 407.3 514.2 419.8C557 432.3 600 452.7 642.8 463.3C685.7 474 728.3 475 771.2 476.2C814 477.3 857 478.7 878.5 479.3L900 480L900 601L878.5 601C857 601 814 601 771.2 601C728.3 601 685.7 601 642.8 601C600 601 557 601 514.2 601C471.3 601 428.7 601 385.8 601C343 601 300 601 257.2 601C214.3 601 171.7 601 128.8 601C86 601 43 601 21.5 601L0 601Z" fill="#80b4a7"></path><path d="M0 497L21.5 489.5C43 482 86 467 128.8 457C171.7 447 214.3 442 257.2 440.5C300 439 343 441 385.8 450.7C428.7 460.3 471.3 477.7 514.2 480C557 482.3 600 469.7 642.8 463.5C685.7 457.3 728.3 457.7 771.2 455.5C814 453.3 857 448.7 878.5 446.3L900 444L900 601L878.5 601C857 601 814 601 771.2 601C728.3 601 685.7 601 642.8 601C600 601 557 601 514.2 601C471.3 601 428.7 601 385.8 601C343 601 300 601 257.2 601C214.3 601 171.7 601 128.8 601C86 601 43 601 21.5 601L0 601Z" fill="#a5ccc1"></path><path d="M0 507L21.5 503.3C43 499.7 86 492.3 128.8 491.3C171.7 490.3 214.3 495.7 257.2 501.5C300 507.3 343 513.7 385.8 512C428.7 510.3 471.3 500.7 514.2 496.3C557 492 600 493 642.8 491.7C685.7 490.3 728.3 486.7 771.2 486.2C814 485.7 857 488.3 878.5 489.7L900 491L900 601L878.5 601C857 601 814 601 771.2 601C728.3 601 685.7 601 642.8 601C600 601 557 601 514.2 601C471.3 601 428.7 601 385.8 601C343 601 300 601 257.2 601C214.3 601 171.7 601 128.8 601C86 601 43 601 21.5 601L0 601Z" fill="#cae4dc"></path><path d="M0 543L21.5 541C43 539 86 535 128.8 539.7C171.7 544.3 214.3 557.7 257.2 563.3C300 569 343 567 385.8 565.8C428.7 564.7 471.3 564.3 514.2 561.3C557 558.3 600 552.7 642.8 554.3C685.7 556 728.3 565 771.2 569.3C814 573.7 857 573.3 878.5 573.2L900 573L900 601L878.5 601C857 601 814 601 771.2 601C728.3 601 685.7 601 642.8 601C600 601 557 601 514.2 601C471.3 601 428.7 601 385.8 601C343 601 300 601 257.2 601C214.3 601 171.7 601 128.8 601C86 601 43 601 21.5 601L0 601Z" fill="#effcf8"></path></svg>